<svg width="491" height="300" viewBox="0 0 491 300" fill="none" xmlns="http://www.w3.org/2000/svg">
<ellipse cx="213.441" cy="149.987" rx="193.238" ry="103.5" transform="rotate(-15 213.441 149.987)" fill="#B54BC7"/>
<ellipse cx="257.5" cy="186.658" rx="233.5" ry="103.5" fill="#7D1A8D"/>
<path d="M272.039 233.395C272.039 232.418 271.668 231.663 270.926 231.129C270.197 230.582 268.914 230.113 267.078 229.723C265.255 229.332 263.803 228.863 262.723 228.316C261.655 227.77 260.861 227.118 260.34 226.363C259.832 225.608 259.578 224.71 259.578 223.668C259.578 221.936 260.307 220.471 261.766 219.273C263.237 218.076 265.112 217.477 267.391 217.477C269.786 217.477 271.727 218.095 273.211 219.332C274.708 220.569 275.457 222.151 275.457 224.078H271.824C271.824 223.089 271.401 222.236 270.555 221.52C269.721 220.803 268.667 220.445 267.391 220.445C266.076 220.445 265.047 220.732 264.305 221.305C263.562 221.878 263.191 222.626 263.191 223.551C263.191 224.423 263.536 225.081 264.227 225.523C264.917 225.966 266.16 226.389 267.957 226.793C269.767 227.197 271.232 227.678 272.352 228.238C273.471 228.798 274.298 229.475 274.832 230.27C275.379 231.051 275.652 232.008 275.652 233.141C275.652 235.029 274.897 236.546 273.387 237.691C271.876 238.824 269.917 239.391 267.508 239.391C265.815 239.391 264.318 239.091 263.016 238.492C261.714 237.893 260.691 237.06 259.949 235.992C259.22 234.911 258.855 233.746 258.855 232.496H262.469C262.534 233.707 263.016 234.671 263.914 235.387C264.826 236.09 266.023 236.441 267.508 236.441C268.875 236.441 269.969 236.168 270.789 235.621C271.622 235.061 272.039 234.319 272.039 233.395ZM284.202 228.238C284.202 226.168 284.606 224.306 285.413 222.652C286.234 220.999 287.366 219.723 288.812 218.824C290.27 217.926 291.93 217.477 293.792 217.477C296.67 217.477 298.994 218.473 300.765 220.465C302.549 222.457 303.441 225.107 303.441 228.414V228.668C303.441 230.725 303.043 232.574 302.249 234.215C301.468 235.842 300.342 237.112 298.87 238.023C297.412 238.935 295.732 239.391 293.831 239.391C290.967 239.391 288.642 238.395 286.859 236.402C285.088 234.41 284.202 231.773 284.202 228.492V228.238ZM287.835 228.668C287.835 231.012 288.376 232.893 289.456 234.312C290.55 235.732 292.008 236.441 293.831 236.441C295.667 236.441 297.126 235.725 298.206 234.293C299.287 232.848 299.827 230.829 299.827 228.238C299.827 225.921 299.274 224.046 298.167 222.613C297.073 221.168 295.615 220.445 293.792 220.445C292.008 220.445 290.57 221.155 289.476 222.574C288.382 223.993 287.835 226.025 287.835 228.668ZM314.549 239V220.66H311.209V217.867H314.549V215.699C314.549 213.434 315.155 211.682 316.366 210.445C317.577 209.208 319.289 208.59 321.502 208.59C322.336 208.59 323.162 208.701 323.983 208.922L323.787 211.852C323.176 211.734 322.524 211.676 321.834 211.676C320.662 211.676 319.758 212.021 319.12 212.711C318.482 213.388 318.162 214.365 318.162 215.641V217.867H322.674V220.66H318.162V239H314.549ZM336.38 212.75V217.867H340.326V220.66H336.38V233.766C336.38 234.612 336.556 235.25 336.908 235.68C337.259 236.096 337.858 236.305 338.705 236.305C339.121 236.305 339.694 236.227 340.423 236.07V239C339.473 239.26 338.548 239.391 337.65 239.391C336.035 239.391 334.818 238.902 333.998 237.926C333.177 236.949 332.767 235.562 332.767 233.766V220.66H328.92V217.867H332.767V212.75H336.38ZM368.075 234.02L372.137 217.867H375.751L369.598 239H366.669L361.532 222.984L356.532 239H353.602L347.47 217.867H351.063L355.223 233.688L360.145 217.867H363.055L368.075 234.02ZM397.289 239C397.081 238.583 396.911 237.841 396.781 236.773C395.102 238.518 393.096 239.391 390.766 239.391C388.682 239.391 386.97 238.805 385.629 237.633C384.301 236.448 383.637 234.951 383.637 233.141C383.637 230.94 384.47 229.234 386.137 228.023C387.816 226.799 390.173 226.188 393.207 226.188H396.723V224.527C396.723 223.264 396.345 222.262 395.59 221.52C394.835 220.764 393.721 220.387 392.25 220.387C390.961 220.387 389.88 220.712 389.008 221.363C388.135 222.014 387.699 222.802 387.699 223.727H384.066C384.066 222.672 384.438 221.656 385.18 220.68C385.935 219.69 386.951 218.909 388.227 218.336C389.516 217.763 390.928 217.477 392.465 217.477C394.9 217.477 396.807 218.089 398.188 219.312C399.568 220.523 400.284 222.197 400.336 224.332V234.059C400.336 235.999 400.583 237.542 401.078 238.688V239H397.289ZM391.293 236.246C392.426 236.246 393.5 235.953 394.516 235.367C395.531 234.781 396.267 234.02 396.723 233.082V228.746H393.891C389.464 228.746 387.25 230.042 387.25 232.633C387.25 233.766 387.628 234.651 388.383 235.289C389.138 235.927 390.108 236.246 391.293 236.246ZM421.015 221.109C420.468 221.018 419.876 220.973 419.238 220.973C416.868 220.973 415.26 221.982 414.413 224V239H410.8V217.867H414.316L414.374 220.309C415.559 218.421 417.239 217.477 419.413 217.477C420.116 217.477 420.65 217.568 421.015 217.75V221.109ZM437.534 239.391C434.669 239.391 432.338 238.453 430.541 236.578C428.745 234.69 427.846 232.171 427.846 229.02V228.355C427.846 226.259 428.243 224.391 429.038 222.75C429.845 221.096 430.965 219.807 432.397 218.883C433.842 217.945 435.405 217.477 437.084 217.477C439.832 217.477 441.967 218.382 443.491 220.191C445.014 222.001 445.776 224.592 445.776 227.965V229.469H431.459C431.511 231.552 432.117 233.238 433.276 234.527C434.448 235.803 435.932 236.441 437.729 236.441C439.005 236.441 440.086 236.181 440.971 235.66C441.857 235.139 442.631 234.449 443.295 233.59L445.502 235.309C443.732 238.03 441.075 239.391 437.534 239.391ZM437.084 220.445C435.626 220.445 434.402 220.979 433.413 222.047C432.423 223.102 431.811 224.586 431.577 226.5H442.163V226.227C442.058 224.391 441.564 222.971 440.678 221.969C439.793 220.953 438.595 220.445 437.084 220.445Z" fill="white" fill-opacity="0.8"/>
<path d="M128.078 144.062C126.766 143.844 125.344 143.734 123.812 143.734C118.125 143.734 114.266 146.156 112.234 151V187H103.562V136.281H112L112.141 142.141C114.984 137.609 119.016 135.344 124.234 135.344C125.922 135.344 127.203 135.562 128.078 136V144.062ZM167.723 187.938C160.848 187.938 155.254 185.688 150.942 181.188C146.629 176.656 144.473 170.609 144.473 163.047V161.453C144.473 156.422 145.426 151.938 147.333 148C149.27 144.031 151.958 140.938 155.395 138.719C158.864 136.469 162.614 135.344 166.645 135.344C173.239 135.344 178.364 137.516 182.02 141.859C185.676 146.203 187.504 152.422 187.504 160.516V164.125H153.145C153.27 169.125 154.723 173.172 157.504 176.266C160.317 179.328 163.879 180.859 168.192 180.859C171.254 180.859 173.848 180.234 175.973 178.984C178.098 177.734 179.958 176.078 181.551 174.016L186.848 178.141C182.598 184.672 176.223 187.938 167.723 187.938ZM166.645 142.469C163.145 142.469 160.208 143.75 157.833 146.312C155.458 148.844 153.989 152.406 153.426 157H178.833V156.344C178.583 151.938 177.395 148.531 175.27 146.125C173.145 143.688 170.27 142.469 166.645 142.469ZM240.415 187C239.915 186 239.509 184.219 239.196 181.656C235.165 185.844 230.353 187.938 224.759 187.938C219.759 187.938 215.649 186.531 212.431 183.719C209.243 180.875 207.649 177.281 207.649 172.938C207.649 167.656 209.649 163.562 213.649 160.656C217.681 157.719 223.337 156.25 230.618 156.25H239.056V152.266C239.056 149.234 238.149 146.828 236.337 145.047C234.524 143.234 231.853 142.328 228.321 142.328C225.228 142.328 222.634 143.109 220.54 144.672C218.446 146.234 217.399 148.125 217.399 150.344H208.681C208.681 147.812 209.571 145.375 211.353 143.031C213.165 140.656 215.603 138.781 218.665 137.406C221.759 136.031 225.149 135.344 228.837 135.344C234.681 135.344 239.259 136.812 242.571 139.75C245.884 142.656 247.603 146.672 247.728 151.797V175.141C247.728 179.797 248.321 183.5 249.509 186.25V187H240.415ZM226.024 180.391C228.743 180.391 231.321 179.688 233.759 178.281C236.196 176.875 237.962 175.047 239.056 172.797V162.391H232.259C221.634 162.391 216.321 165.5 216.321 171.719C216.321 174.438 217.228 176.562 219.04 178.094C220.853 179.625 223.181 180.391 226.024 180.391ZM282.263 187H273.591V115H282.263V187ZM317.127 187H308.455V136.281H317.127V187ZM307.752 122.828C307.752 121.422 308.174 120.234 309.018 119.266C309.893 118.297 311.174 117.812 312.861 117.812C314.549 117.812 315.83 118.297 316.705 119.266C317.58 120.234 318.018 121.422 318.018 122.828C318.018 124.234 317.58 125.406 316.705 126.344C315.83 127.281 314.549 127.75 312.861 127.75C311.174 127.75 309.893 127.281 309.018 126.344C308.174 125.406 307.752 124.234 307.752 122.828ZM372.1 173.547C372.1 171.203 371.209 169.391 369.428 168.109C367.678 166.797 364.6 165.672 360.194 164.734C355.819 163.797 352.334 162.672 349.741 161.359C347.178 160.047 345.272 158.484 344.022 156.672C342.803 154.859 342.194 152.703 342.194 150.203C342.194 146.047 343.944 142.531 347.444 139.656C350.975 136.781 355.475 135.344 360.944 135.344C366.694 135.344 371.35 136.828 374.913 139.797C378.506 142.766 380.303 146.562 380.303 151.188H371.584C371.584 148.812 370.569 146.766 368.538 145.047C366.538 143.328 364.006 142.469 360.944 142.469C357.788 142.469 355.319 143.156 353.538 144.531C351.756 145.906 350.866 147.703 350.866 149.922C350.866 152.016 351.694 153.594 353.35 154.656C355.006 155.719 357.991 156.734 362.303 157.703C366.647 158.672 370.163 159.828 372.85 161.172C375.538 162.516 377.522 164.141 378.803 166.047C380.116 167.922 380.772 170.219 380.772 172.938C380.772 177.469 378.959 181.109 375.334 183.859C371.709 186.578 367.006 187.938 361.225 187.938C357.163 187.938 353.569 187.219 350.444 185.781C347.319 184.344 344.866 182.344 343.084 179.781C341.334 177.188 340.459 174.391 340.459 171.391H349.131C349.288 174.297 350.444 176.609 352.6 178.328C354.788 180.016 357.663 180.859 361.225 180.859C364.506 180.859 367.131 180.203 369.1 178.891C371.1 177.547 372.1 175.766 372.1 173.547ZM424.636 187.938C417.761 187.938 412.167 185.688 407.854 181.188C403.542 176.656 401.386 170.609 401.386 163.047V161.453C401.386 156.422 402.339 151.938 404.245 148C406.182 144.031 408.87 140.938 412.307 138.719C415.776 136.469 419.526 135.344 423.557 135.344C430.151 135.344 435.276 137.516 438.932 141.859C442.589 146.203 444.417 152.422 444.417 160.516V164.125H410.057C410.182 169.125 411.636 173.172 414.417 176.266C417.229 179.328 420.792 180.859 425.104 180.859C428.167 180.859 430.761 180.234 432.886 178.984C435.011 177.734 436.87 176.078 438.464 174.016L443.761 178.141C439.511 184.672 433.136 187.938 424.636 187.938ZM423.557 142.469C420.057 142.469 417.12 143.75 414.745 146.312C412.37 148.844 410.901 152.406 410.339 157H435.745V156.344C435.495 151.938 434.307 148.531 432.182 146.125C430.057 143.688 427.182 142.469 423.557 142.469Z" fill="white"/>
</svg>
