<svg width="491" height="301" viewBox="0 0 491 301" fill="none" xmlns="http://www.w3.org/2000/svg">
<ellipse cx="213.441" cy="150.828" rx="193.238" ry="103.5" transform="rotate(-15 213.441 150.828)" fill="#B54BC7"/>
<ellipse cx="257.5" cy="187.5" rx="233.5" ry="103.5" fill="#7D1A8D"/>
<path d="M137.078 170.062C135.766 169.844 134.344 169.734 132.812 169.734C127.125 169.734 123.266 172.156 121.234 177V213H112.562V162.281H121L121.141 168.141C123.984 163.609 128.016 161.344 133.234 161.344C134.922 161.344 136.203 161.562 137.078 162V170.062ZM176.723 213.937C169.848 213.937 164.254 211.687 159.942 207.187C155.629 202.656 153.473 196.609 153.473 189.047V187.453C153.473 182.422 154.426 177.937 156.333 174C158.27 170.031 160.958 166.937 164.395 164.719C167.864 162.469 171.614 161.344 175.645 161.344C182.239 161.344 187.364 163.516 191.02 167.859C194.676 172.203 196.504 178.422 196.504 186.516V190.125H162.145C162.27 195.125 163.723 199.172 166.504 202.266C169.317 205.328 172.879 206.859 177.192 206.859C180.254 206.859 182.848 206.234 184.973 204.984C187.098 203.734 188.958 202.078 190.551 200.016L195.848 204.141C191.598 210.672 185.223 213.937 176.723 213.937ZM175.645 168.469C172.145 168.469 169.208 169.75 166.833 172.312C164.458 174.844 162.989 178.406 162.426 183H187.833V182.344C187.583 177.937 186.395 174.531 184.27 172.125C182.145 169.687 179.27 168.469 175.645 168.469ZM249.415 213C248.915 212 248.509 210.219 248.196 207.656C244.165 211.844 239.353 213.937 233.759 213.937C228.759 213.937 224.649 212.531 221.431 209.719C218.243 206.875 216.649 203.281 216.649 198.937C216.649 193.656 218.649 189.562 222.649 186.656C226.681 183.719 232.337 182.25 239.618 182.25H248.056V178.266C248.056 175.234 247.149 172.828 245.337 171.047C243.524 169.234 240.853 168.328 237.321 168.328C234.228 168.328 231.634 169.109 229.54 170.672C227.446 172.234 226.399 174.125 226.399 176.344H217.681C217.681 173.812 218.571 171.375 220.353 169.031C222.165 166.656 224.603 164.781 227.665 163.406C230.759 162.031 234.149 161.344 237.837 161.344C243.681 161.344 248.259 162.812 251.571 165.75C254.884 168.656 256.603 172.672 256.728 177.797V201.141C256.728 205.797 257.321 209.5 258.509 212.25V213H249.415ZM235.024 206.391C237.743 206.391 240.321 205.687 242.759 204.281C245.196 202.875 246.962 201.047 248.056 198.797V188.391H241.259C230.634 188.391 225.321 191.5 225.321 197.719C225.321 200.437 226.228 202.562 228.04 204.094C229.853 205.625 232.181 206.391 235.024 206.391ZM291.263 213H282.591V141H291.263V213ZM326.127 213H317.455V162.281H326.127V213ZM316.752 148.828C316.752 147.422 317.174 146.234 318.018 145.266C318.893 144.297 320.174 143.812 321.861 143.812C323.549 143.812 324.83 144.297 325.705 145.266C326.58 146.234 327.018 147.422 327.018 148.828C327.018 150.234 326.58 151.406 325.705 152.344C324.83 153.281 323.549 153.75 321.861 153.75C320.174 153.75 318.893 153.281 318.018 152.344C317.174 151.406 316.752 150.234 316.752 148.828ZM381.1 199.547C381.1 197.203 380.209 195.391 378.428 194.109C376.678 192.797 373.6 191.672 369.194 190.734C364.819 189.797 361.334 188.672 358.741 187.359C356.178 186.047 354.272 184.484 353.022 182.672C351.803 180.859 351.194 178.703 351.194 176.203C351.194 172.047 352.944 168.531 356.444 165.656C359.975 162.781 364.475 161.344 369.944 161.344C375.694 161.344 380.35 162.828 383.913 165.797C387.506 168.766 389.303 172.562 389.303 177.187H380.584C380.584 174.812 379.569 172.766 377.538 171.047C375.538 169.328 373.006 168.469 369.944 168.469C366.788 168.469 364.319 169.156 362.538 170.531C360.756 171.906 359.866 173.703 359.866 175.922C359.866 178.016 360.694 179.594 362.35 180.656C364.006 181.719 366.991 182.734 371.303 183.703C375.647 184.672 379.163 185.828 381.85 187.172C384.538 188.516 386.522 190.141 387.803 192.047C389.116 193.922 389.772 196.219 389.772 198.937C389.772 203.469 387.959 207.109 384.334 209.859C380.709 212.578 376.006 213.937 370.225 213.937C366.163 213.937 362.569 213.219 359.444 211.781C356.319 210.344 353.866 208.344 352.084 205.781C350.334 203.187 349.459 200.391 349.459 197.391H358.131C358.288 200.297 359.444 202.609 361.6 204.328C363.788 206.016 366.663 206.859 370.225 206.859C373.506 206.859 376.131 206.203 378.1 204.891C380.1 203.547 381.1 201.766 381.1 199.547ZM433.636 213.937C426.761 213.937 421.167 211.687 416.854 207.187C412.542 202.656 410.386 196.609 410.386 189.047V187.453C410.386 182.422 411.339 177.937 413.245 174C415.182 170.031 417.87 166.937 421.307 164.719C424.776 162.469 428.526 161.344 432.557 161.344C439.151 161.344 444.276 163.516 447.932 167.859C451.589 172.203 453.417 178.422 453.417 186.516V190.125H419.057C419.182 195.125 420.636 199.172 423.417 202.266C426.229 205.328 429.792 206.859 434.104 206.859C437.167 206.859 439.761 206.234 441.886 204.984C444.011 203.734 445.87 202.078 447.464 200.016L452.761 204.141C448.511 210.672 442.136 213.937 433.636 213.937ZM432.557 168.469C429.057 168.469 426.12 169.75 423.745 172.312C421.37 174.844 419.901 178.406 419.339 183H444.745V182.344C444.495 177.937 443.307 174.531 441.182 172.125C439.057 169.687 436.182 168.469 432.557 168.469Z" fill="white"/>
</svg>
